<?xml version="1.0" encoding="UTF-8" standalone="no"?>
<!-- Created with Inkscape (http://www.inkscape.org/) -->

<svg
   width="141.35042mm"
   height="31.9506mm"
   viewBox="0 0 141.35042 31.9506"
   version="1.1"
   id="svg5"
   inkscape:version="1.2.1 (9c6d41e410, 2022-07-14)"
   sodipodi:docname="qpid.svg"
   xmlns:inkscape="http://www.inkscape.org/namespaces/inkscape"
   xmlns:sodipodi="http://sodipodi.sourceforge.net/DTD/sodipodi-0.dtd"
   xmlns="http://www.w3.org/2000/svg"
   xmlns:svg="http://www.w3.org/2000/svg">
  <sodipodi:namedview
     id="namedview7"
     pagecolor="#ffffff"
     bordercolor="#000000"
     borderopacity="0.25"
     inkscape:showpageshadow="2"
     inkscape:pageopacity="0.0"
     inkscape:pagecheckerboard="0"
     inkscape:deskcolor="#d1d1d1"
     inkscape:document-units="mm"
     showgrid="false"
     inkscape:zoom="1.829812"
     inkscape:cx="271.88585"
     inkscape:cy="82.795391"
     inkscape:window-width="1698"
     inkscape:window-height="1251"
     inkscape:window-x="161"
     inkscape:window-y="510"
     inkscape:window-maximized="0"
     inkscape:current-layer="layer1" />
  <defs
     id="defs2" />
  <g
     inkscape:label="Layer 1"
     inkscape:groupmode="layer"
     id="layer1"
     transform="translate(-29.813722,-126.95948)">
    <g
       aria-label="Apache Qpid"
       id="text236"
       style="font-size:31.7285px;font-family:Oswald;-inkscape-font-specification:'Oswald, Normal';stroke-width:2.64404">
      <path
         d="m 29.813722,152.88167 5.457302,-25.70009 h 3.458406 l 5.489031,25.70009 h -3.39495 l -1.173954,-6.47262 h -5.235203 l -1.237411,6.47262 z m 5.07656,-9.04262 h 4.283347 l -2.157538,-11.58091 z"
         id="path1106" />
      <path
         d="m 46.53466,158.91008 v -24.36749 h 3.394949 v 1.45952 q 0.602842,-0.69803 1.459511,-1.20569 0.85667,-0.50765 2.030624,-0.50765 1.427783,0 2.252724,0.76148 0.856669,0.72976 1.26914,1.87198 0.41247,1.1105 0.539384,2.28445 0.126914,1.14223 0.126914,1.96717 v 4.44199 q 0,1.93544 -0.380742,3.68051 -0.380742,1.71334 -1.396054,2.79211 -0.983583,1.04704 -2.792108,1.04704 -0.983583,0 -1.745067,-0.47593 -0.761484,-0.50766 -1.364326,-1.14223 v 7.39274 z m 5.838044,-8.43978 q 0.888398,0 1.26914,-0.63457 0.380742,-0.6663 0.475927,-1.77679 0.09519,-1.1105 0.09519,-2.4431 v -4.44199 q 0,-1.14222 -0.126914,-2.09408 -0.126914,-0.98358 -0.539385,-1.5547 -0.41247,-0.57111 -1.300868,-0.57111 -0.666299,0 -1.26914,0.28556 -0.602842,0.28555 -1.047041,0.6663 v 11.73954 q 0.475928,0.34901 1.078769,0.60284 0.602842,0.2221 1.364326,0.2221 z"
         id="path1108" />
      <path
         d="m 63.985307,153.1355 q -1.078769,0 -1.90371,-0.60285 -0.824941,-0.63457 -1.300868,-1.58642 -0.475928,-0.98358 -0.475928,-2.06235 0,-1.71334 0.571113,-2.8873 0.571113,-1.17395 1.554697,-1.96716 1.015312,-0.82494 2.31618,-1.42779 1.332597,-0.60284 2.792108,-1.17395 v -1.30087 q 0,-1.1105 -0.126914,-1.84025 -0.126914,-0.72976 -0.539384,-1.07877 -0.380742,-0.38074 -1.173955,-0.38074 -0.698027,0 -1.142226,0.31728 -0.41247,0.31729 -0.602841,0.92013 -0.190371,0.57111 -0.190371,1.36432 v 0.92013 L 60.399987,140.222 q 0.06346,-3.04594 1.396054,-4.47372 1.332597,-1.45951 4.124705,-1.45951 2.728651,0 3.870877,1.49124 1.142226,1.49124 1.142226,4.31507 v 8.37633 q 0,0.85667 0.03173,1.64988 0.06346,0.79321 0.126914,1.49124 0.09519,0.6663 0.158643,1.26914 h -3.109393 q -0.09519,-0.50766 -0.253828,-1.26914 -0.126914,-0.79321 -0.190371,-1.42778 -0.317285,1.07876 -1.237412,2.03062 -0.888398,0.92013 -2.474823,0.92013 z m 1.332597,-2.91903 q 0.507656,0 0.951855,-0.28555 0.444199,-0.28556 0.793213,-0.63457 0.349013,-0.38074 0.475927,-0.60284 v -5.20348 q -0.793212,0.4442 -1.491239,0.8884 -0.698027,0.4442 -1.237412,0.95186 -0.507656,0.47592 -0.824941,1.11049 -0.285556,0.60284 -0.285556,1.39606 0,1.11049 0.41247,1.74506 0.412471,0.63457 1.205683,0.63457 z"
         id="path1110" />
      <path
         d="m 79.215006,153.1355 q -2.252724,0 -3.426678,-0.8884 -1.142226,-0.92013 -1.554697,-2.57001 -0.380742,-1.64988 -0.380742,-3.83915 v -4.21989 q 0,-2.31618 0.412471,-3.93433 0.41247,-1.64989 1.554696,-2.50656 1.173955,-0.88839 3.39495,-0.88839 1.998895,0 3.077664,0.6663 1.110498,0.63457 1.522968,1.93543 0.412471,1.26914 0.412471,3.17285 v 1.07877 h -3.077665 v -1.11049 q 0,-1.20569 -0.158642,-1.90371 -0.158643,-0.69803 -0.571113,-1.01532 -0.412471,-0.31728 -1.173955,-0.31728 -0.824941,0 -1.26914,0.38074 -0.444199,0.38074 -0.602841,1.30087 -0.126914,0.8884 -0.126914,2.44309 v 5.77459 q 0,2.34791 0.444199,3.14112 0.444199,0.79321 1.586425,0.79321 0.856669,0 1.237411,-0.38074 0.412471,-0.41247 0.507656,-1.14222 0.126914,-0.72976 0.126914,-1.64989 v -1.49123 h 3.077665 v 1.26914 q 0,1.84025 -0.444199,3.17285 -0.412471,1.33259 -1.522968,2.03062 -1.078769,0.69803 -3.045936,0.69803 z"
         id="path1112" />
      <path
         d="m 87.337482,152.88167 v -25.70009 h 3.394949 v 9.26472 q 0.920127,-0.88839 2.062353,-1.52296 1.142226,-0.63457 2.53828,-0.63457 1.078769,0 1.649882,0.57111 0.602842,0.57111 0.824941,1.42778 0.253828,0.85667 0.253828,1.74507 v 14.84894 h -3.39495 v -13.86536 q 0,-0.98358 -0.285556,-1.52296 -0.285557,-0.53939 -1.173955,-0.53939 -0.602841,0 -1.26914,0.34901 -0.63457,0.34902 -1.205683,0.85667 v 14.72203 z"
         id="path1114" />
      <path
         d="m 106.43803,153.1355 q -2.15754,0 -3.33149,-0.82494 -1.17396,-0.85667 -1.64989,-2.47483 -0.4442,-1.64988 -0.4442,-4.02952 v -4.18816 q 0,-2.44309 0.47593,-4.06125 0.47593,-1.61815 1.64988,-2.44309 1.20569,-0.82494 3.29977,-0.82494 2.31618,0 3.39495,0.95185 1.11049,0.95186 1.45951,2.76038 0.34901,1.7768 0.34901,4.28335 v 1.49124 h -7.2341 v 3.6805 q 0,1.1105 0.19037,1.80853 0.2221,0.69803 0.6663,1.04704 0.47593,0.31728 1.20569,0.31728 0.76148,0 1.14222,-0.34901 0.41247,-0.38074 0.53939,-1.04704 0.15864,-0.69803 0.15864,-1.61815 v -1.1105 h 3.29976 v 0.69803 q 0,2.76038 -1.17395,4.3468 -1.17396,1.58643 -3.99779,1.58643 z m -2.03063,-11.20016 h 3.90261 v -1.64989 q 0,-1.14222 -0.12691,-1.90371 -0.12692,-0.79321 -0.53939,-1.17395 -0.38074,-0.41247 -1.23741,-0.41247 -0.82494,0 -1.26914,0.38074 -0.41247,0.38074 -0.57111,1.30087 -0.15865,0.8884 -0.15865,2.47482 z"
         id="path1116" />
      <path
         d="m 134.07354,158.08514 q -0.85667,-0.4442 -1.71334,-1.26914 -0.82494,-0.82494 -1.58643,-1.80852 -0.72975,-0.98359 -1.33259,-1.87198 -0.12692,0.0317 -0.28556,0.0317 -0.15864,0 -0.31728,0 -2.60174,0 -4.15644,-1.01531 -1.55469,-1.01531 -2.22099,-2.88729 -0.6663,-1.90371 -0.6663,-4.44199 v -9.74065 q 0,-2.53828 0.6663,-4.34681 0.69802,-1.84025 2.22099,-2.7921 1.5547,-0.98359 4.15644,-0.98359 2.60173,0 4.1247,0.98359 1.5547,0.98358 2.221,2.7921 0.69802,1.80853 0.69802,4.34681 v 9.77238 q 0,1.87198 -0.38074,3.42668 -0.38074,1.52296 -1.20568,2.63346 -0.82494,1.07877 -2.18927,1.64988 0.38074,0.47593 0.82494,0.98359 0.4442,0.53938 0.8884,0.98358 0.4442,0.4442 0.82494,0.72976 z m -5.2352,-7.74175 q 1.45951,0 2.18926,-0.57111 0.72976,-0.60285 0.98359,-1.64989 0.25382,-1.07877 0.25382,-2.50655 v -11.26362 q 0,-1.42778 -0.25382,-2.44309 -0.25383,-1.04704 -0.98359,-1.58643 -0.72975,-0.57111 -2.18926,-0.57111 -1.42779,0 -2.18927,0.57111 -0.72976,0.53939 -0.98358,1.58643 -0.25383,1.01531 -0.25383,2.44309 v 11.26362 q 0,1.42778 0.25383,2.50655 0.25382,1.04704 0.98358,1.64989 0.76148,0.57111 2.18927,0.57111 z"
         id="path1118" />
      <path
         d="m 139.15011,158.91008 v -24.36749 h 3.39495 v 1.45952 q 0.60284,-0.69803 1.45951,-1.20569 0.85667,-0.50765 2.03062,-0.50765 1.42779,0 2.25273,0.76148 0.85667,0.72976 1.26914,1.87198 0.41247,1.1105 0.53938,2.28445 0.12692,1.14223 0.12692,1.96717 v 4.44199 q 0,1.93544 -0.38074,3.68051 -0.38075,1.71334 -1.39606,2.79211 -0.98358,1.04704 -2.79211,1.04704 -0.98358,0 -1.74506,-0.47593 -0.76149,-0.50766 -1.36433,-1.14223 v 7.39274 z m 5.83804,-8.43978 q 0.8884,0 1.26914,-0.63457 0.38075,-0.6663 0.47593,-1.77679 0.0952,-1.1105 0.0952,-2.4431 v -4.44199 q 0,-1.14222 -0.12692,-2.09408 -0.12691,-0.98358 -0.53938,-1.5547 -0.41247,-0.57111 -1.30087,-0.57111 -0.6663,0 -1.26914,0.28556 -0.60284,0.28555 -1.04704,0.6663 v 11.73954 q 0.47593,0.34901 1.07877,0.60284 0.60284,0.2221 1.36432,0.2221 z"
         id="path1120" />
      <path
         d="m 153.5231,152.88167 v -18.33908 h 3.39495 v 18.33908 z m 0,-21.06773 v -3.55359 h 3.39495 v 3.55359 z"
         id="path1122" />
      <path
         d="m 164.81845,153.1355 q -2.31618,0 -3.45841,-1.68161 -1.14223,-1.71334 -1.14223,-5.77459 v -3.55359 q 0,-2.09408 0.34902,-3.87088 0.34901,-1.80853 1.30087,-2.88729 0.98358,-1.07877 2.85556,-1.07877 0.92013,0 1.68161,0.41247 0.76149,0.41247 1.36433,1.01531 v -8.53497 h 3.39495 v 25.70009 h -3.39495 v -1.17396 q -0.60284,0.63457 -1.3326,1.04704 -0.69803,0.38075 -1.61815,0.38075 z m 0.85667,-2.6652 q 0.47592,0 1.01531,-0.15864 0.53938,-0.19037 1.07877,-0.53938 v -12.02511 q -0.4442,-0.31728 -0.98359,-0.53938 -0.53938,-0.25383 -1.17395,-0.25383 -1.17396,0 -1.58643,1.14223 -0.41247,1.11049 -0.41247,2.69692 v 5.17175 q 0,1.26914 0.12692,2.31618 0.15864,1.01531 0.60284,1.61815 0.4442,0.57111 1.3326,0.57111 z"
         id="path1124" />
    </g>
  </g>
</svg>
